<?xml version="1.0" standalone="no"?>
<!DOCTYPE svg PUBLIC "-//W3C//DTD SVG 20010904//EN"
 "http://www.w3.org/TR/2001/REC-SVG-20010904/DTD/svg10.dtd">
<svg version="1.0" xmlns="http://www.w3.org/2000/svg"
 width="32.000000pt" height="32.000000pt" viewBox="0 0 32.000000 32.000000"
 preserveAspectRatio="xMidYMid meet">

<g transform="translate(0.000000,32.000000) scale(0.100000,-0.100000)"
fill="#000000" stroke="none">
<path d="M0 160 l0 -160 160 0 160 0 0 160 0 160 -160 0 -160 0 0 -160z m224
28 c28 -53 42 -88 34 -87 -7 0 -35 9 -63 19 -48 18 -49 18 -17 19 l34 1 -36
66 c-24 43 -35 73 -30 86 6 19 6 19 18 1 7 -10 34 -57 60 -105z m-66 17 c12
-25 22 -48 22 -50 0 -12 -31 -3 -36 10 -9 22 -22 18 -38 -12 l-15 -28 52 -17
52 -16 -78 -1 -78 -1 42 80 c22 44 44 80 48 80 4 0 17 -20 29 -45z m-23 -155
c3 -5 1 -10 -4 -10 -6 0 -11 5 -11 10 0 6 2 10 4 10 3 0 8 -4 11 -10z m85 0
c0 -5 -5 -10 -11 -10 -5 0 -7 5 -4 10 3 6 8 10 11 10 2 0 4 -4 4 -10z m50 0
c0 -5 -4 -10 -10 -10 -5 0 -10 5 -10 10 0 6 5 10 10 10 6 0 10 -4 10 -10z"/>
</g>
</svg>
